<svg xmlns="http://www.w3.org/2000/svg" xmlns:xlink="http://www.w3.org/1999/xlink" style="width: 0; height: 0; visibility: hidden; position: absolute;" aria-hidden="true"><symbol  viewBox='0 0 32 32' id='eye'>
    <path d="M16 6C9.021 6 2.972 10.064 0 16c2.972 5.936 9.021 10 16 10s13.027-4.064 16-10c-2.972-5.936-9.021-10-16-10zm7.889 5.303A15.212 15.212 0 0 1 28.559 16a15.223 15.223 0 0 1-4.67 4.697C21.527 22.204 18.799 23 16 23s-5.527-.796-7.889-2.303A15.212 15.212 0 0 1 3.441 16a15.223 15.223 0 0 1 5.041-4.925 8 8 0 1 0 15.036 0c.124.074.248.15.371.228zM16 13a3 3 0 1 1-6 0 3 3 0 0 1 6 0z"></path>
  </symbol><symbol  viewBox='0 0 32 32' id='facebook'>
    <path fill="var(--fill-color, #787878)" d="M19 6h5V0h-5c-3.86 0-7 3.14-7 7v3H8v6h4v16h6V16h5l1-6h-6V7c0-.542.458-1 1-1z"></path>
  </symbol><symbol  viewBox='0 0 24 24' id='heart'>
    <path d="M20.133 5.317c.88.881 1.319 2.031 1.319 3.184s-.44 2.303-1.319 3.182L12 19.816l-8.133-8.133c-.879-.879-1.318-2.029-1.318-3.183s.439-2.304 1.318-3.183S5.896 3.999 7.05 3.999s2.304.439 3.183 1.318l1.06 1.06a.999.999 0 0 0 1.414 0l1.062-1.062c.879-.879 2.029-1.318 3.182-1.317s2.303.44 3.182 1.319zm1.414-1.414c-1.269-1.269-2.934-1.904-4.596-1.905s-3.327.634-4.597 1.903L12 4.256l-.353-.353C10.378 2.634 8.712 1.999 7.05 1.999s-3.328.635-4.597 1.904S.549 6.838.549 8.5s.635 3.328 1.904 4.597l8.84 8.84a.999.999 0 0 0 1.414 0l8.84-8.84c1.269-1.269 1.904-2.934 1.905-4.596s-.634-3.327-1.905-4.598z"></path>
  </symbol><symbol  viewBox='0 0 32 32' id='instagram'>
    <path fill="var(--fill-color, #787878)" d="M16 2.881c4.275 0 4.781.019 6.462.094 1.563.069 2.406.331 2.969.55a4.952 4.952 0 0 1 1.837 1.194 5.015 5.015 0 0 1 1.2 1.838c.219.563.481 1.412.55 2.969.075 1.688.094 2.194.094 6.463s-.019 4.781-.094 6.463c-.069 1.563-.331 2.406-.55 2.969a4.94 4.94 0 0 1-1.194 1.837 5.02 5.02 0 0 1-1.837 1.2c-.563.219-1.413.481-2.969.55-1.688.075-2.194.094-6.463.094s-4.781-.019-6.463-.094c-1.563-.069-2.406-.331-2.969-.55a4.952 4.952 0 0 1-1.838-1.194 5.02 5.02 0 0 1-1.2-1.837c-.219-.563-.481-1.413-.55-2.969-.075-1.688-.094-2.194-.094-6.463s.019-4.781.094-6.463c.069-1.563.331-2.406.55-2.969a4.964 4.964 0 0 1 1.194-1.838 5.015 5.015 0 0 1 1.838-1.2c.563-.219 1.412-.481 2.969-.55 1.681-.075 2.188-.094 6.463-.094zM16 0c-4.344 0-4.887.019-6.594.094-1.7.075-2.869.35-3.881.744-1.056.412-1.95.956-2.837 1.85a7.833 7.833 0 0 0-1.85 2.831C.444 6.538.169 7.7.094 9.4.019 11.113 0 11.656 0 16s.019 4.887.094 6.594c.075 1.7.35 2.869.744 3.881.413 1.056.956 1.95 1.85 2.837a7.82 7.82 0 0 0 2.831 1.844c1.019.394 2.181.669 3.881.744 1.706.075 2.25.094 6.594.094s4.888-.019 6.594-.094c1.7-.075 2.869-.35 3.881-.744 1.05-.406 1.944-.956 2.831-1.844s1.438-1.781 1.844-2.831c.394-1.019.669-2.181.744-3.881.075-1.706.094-2.25.094-6.594s-.019-4.887-.094-6.594c-.075-1.7-.35-2.869-.744-3.881a7.506 7.506 0 0 0-1.831-2.844A7.82 7.82 0 0 0 26.482.843C25.463.449 24.301.174 22.601.099c-1.712-.081-2.256-.1-6.6-.1z"></path><path fill="var(--fill-color, #787878)" d="M16 7.781c-4.537 0-8.219 3.681-8.219 8.219s3.681 8.219 8.219 8.219 8.219-3.681 8.219-8.219A8.221 8.221 0 0 0 16 7.781zm0 13.55a5.331 5.331 0 1 1 0-10.663 5.331 5.331 0 0 1 0 10.663zM26.462 7.456a1.919 1.919 0 1 1-3.838 0 1.919 1.919 0 0 1 3.838 0z"></path>
  </symbol><symbol  viewBox='0 0 24 24' id='keyboard_arrow_left'>
    <path fill="var(--fill-color, #ffffff)" d="M15.422 16.594 14.016 18l-6-6 6-6 1.406 1.406L10.828 12z"></path>
  </symbol><symbol  viewBox='0 0 24 24' id='keyboard_arrow_right'>
    <path fill="var(--fill-color, #ffffff)" d="M8.578 16.594 13.172 12 8.578 7.406 9.984 6l6 6-6 6z"></path>
  </symbol><symbol  viewBox='0 0 24 24' id='menu'>
    <path d="M3 13h18a1 1 0 0 0 0-2H3a1 1 0 0 0 0 2zm0-6h18a1 1 0 0 0 0-2H3a1 1 0 0 0 0 2zm0 12h18a1 1 0 0 0 0-2H3a1 1 0 0 0 0 2z"></path>
  </symbol><symbol  viewBox='0 0 32 32' id='radio-unchecked'>
    <path stroke="var(--stroke-color, #a38368)" d="M16 0C7.163 0 0 7.163 0 16s7.163 16 16 16 16-7.163 16-16S24.837 0 16 0zm0 28C9.373 28 4 22.627 4 16S9.373 4 16 4s12 5.373 12 12-5.373 12-12 12z"></path>
  </symbol><symbol  viewBox='0 0 32 32' id='search'>
    <path d="M19.427 20.427a8.5 8.5 0 1 1 1.083-.917l5.997 5.997a.699.699 0 0 1-.008.992.7.7 0 0 1-.992.008l-6.081-6.081zM14.5 21a7.5 7.5 0 1 0 0-15 7.5 7.5 0 0 0 0 15z"></path>
  </symbol><symbol  viewBox='0 0 24 24' id='shopping-bag'>
    <path d="M19 5H5l1.5-2h11zm2.794.392L18.8 1.4A1 1 0 0 0 18 1H6a1 1 0 0 0-.8.4L2.206 5.392A.978.978 0 0 0 2 6v14a2.997 2.997 0 0 0 3 3h14a2.997 2.997 0 0 0 3-3V6a.997.997 0 0 0-.189-.585L21.8 5.4zM4 7h16v13c0 .276-.111.525-.293.707S19.276 21 19 21H5c-.276 0-.525-.111-.707-.293S4 20.276 4 20zm11 3c0 .829-.335 1.577-.879 2.121S12.829 13 12 13s-1.577-.335-2.121-.879S9 10.829 9 10a1 1 0 0 0-2 0c0 1.38.561 2.632 1.464 3.536S10.62 15 12 15s2.632-.561 3.536-1.464S17 11.38 17 10a1 1 0 0 0-2 0z"></path>
  </symbol><symbol  viewBox='0 0 24 24' id='shopping-cart'>
    <path d="M11 21c0-.552-.225-1.053-.586-1.414a1.996 1.996 0 0 0-2.828 0 1.996 1.996 0 0 0 0 2.828 1.996 1.996 0 0 0 2.828 0c.361-.361.586-.862.586-1.414zm11 0c0-.552-.225-1.053-.586-1.414a1.996 1.996 0 0 0-2.828 0 1.996 1.996 0 0 0 0 2.828 1.996 1.996 0 0 0 2.828 0c.361-.361.586-.862.586-1.414zM7.221 7h14.57l-1.371 7.191A1 1 0 0 1 19.4 15H9.666a1.016 1.016 0 0 1-.626-.203.99.99 0 0 1-.379-.603zM1 2h3.18l.848 4.239C5.136 6.676 5.53 7 6 7h1.221l-.4-2H6a1 1 0 0 0-.971 1.239L6.7 14.586A3.009 3.009 0 0 0 9.694 17H19.4a2.97 2.97 0 0 0 1.995-.727 3.02 3.02 0 0 0 .985-1.683l1.602-8.402A1 1 0 0 0 23 5H6.82L5.98.804A1 1 0 0 0 5 0H1a1 1 0 0 0 0 2z"></path>
  </symbol><symbol  viewBox='0 0 26 28' id='snapchat-ghost'>
    <path fill="var(--fill-color, #787878)" d="M13.25 2c2.812-.031 5.141 1.547 6.312 4.078.359.766.422 1.953.422 2.797 0 1-.078 1.984-.141 2.984.125.063.297.109.438.109.562 0 1.031-.422 1.594-.422.531 0 1.297.375 1.297 1 0 1.5-3.141 1.219-3.141 2.531 0 .234.094.453.187.672.75 1.641 2.172 3.219 3.859 3.922.406.172.812.266 1.25.359a.527.527 0 0 1 .438.547c0 1.062-2.703 1.5-3.422 1.609-.313.484-.078 1.625-.906 1.625-.641 0-1.281-.203-1.969-.203-.328 0-.656.016-.969.078-1.859.313-2.484 2.312-5.531 2.312-2.938 0-3.641-2-5.453-2.312a5.183 5.183 0 0 0-.984-.078c-.703 0-1.375.234-1.937.234-.875 0-.609-1.156-.938-1.656-.719-.109-3.422-.547-3.422-1.609 0-.281.156-.484.438-.547.438-.094.844-.187 1.25-.359 1.672-.688 3.125-2.281 3.859-3.922.094-.219.187-.438.187-.672 0-1.313-3.156-1.062-3.156-2.516 0-.609.719-1 1.266-1 .484 0 .969.406 1.578.406.172 0 .344-.031.5-.109-.063-.984-.141-1.969-.141-2.969 0-.844.063-2.047.422-2.812C7.812 3.108 10.14 2.03 13.25 1.999z"></path>
  </symbol><symbol  viewBox='0 0 24 24' id='star'>
    <path fill="var(--fill-color, #cccccc)" d="m9.362 9.158-5.268.584c-.19.023-.358.15-.421.343s0 .394.14.521c1.566 1.429 3.919 3.569 3.919 3.569-.002 0-.646 3.113-1.074 5.19a.496.496 0 0 0 .734.534c1.844-1.048 4.606-2.624 4.606-2.624l4.604 2.625c.168.092.378.09.541-.029s.232-.318.195-.505l-1.071-5.191 3.919-3.566a.499.499 0 0 0-.28-.865c-2.108-.236-5.269-.586-5.269-.586l-2.183-4.83a.499.499 0 0 0-.909 0l-2.183 4.83z"></path>
  </symbol><symbol  viewBox='0 0 32 32' id='tiktok'>
    <path fill="var(--fill-color, #787878)" d="M16.707.027C18.454 0 20.187.014 21.92 0c.107 2.04.84 4.12 2.333 5.56 1.493 1.48 3.6 2.16 5.653 2.387v5.373c-1.92-.067-3.853-.467-5.6-1.293-.76-.347-1.467-.787-2.16-1.24-.013 3.893.013 7.787-.027 11.667-.107 1.867-.72 3.72-1.8 5.253-1.747 2.56-4.773 4.227-7.88 4.28-1.907.107-3.813-.413-5.44-1.373-2.693-1.587-4.587-4.493-4.867-7.613a24.42 24.42 0 0 1-.013-1.987 10.004 10.004 0 0 1 3.44-6.613c2.213-1.92 5.307-2.84 8.2-2.293.027 1.973-.053 3.947-.053 5.92-1.32-.427-2.867-.307-4.027.493a4.631 4.631 0 0 0-1.813 2.333c-.28.68-.2 1.427-.187 2.147.32 2.187 2.427 4.027 4.667 3.827 1.493-.013 2.92-.88 3.693-2.147.253-.44.533-.893.547-1.413.133-2.387.08-4.76.093-7.147.013-5.373-.013-10.733.027-16.093z"></path>
  </symbol><symbol  viewBox='0 0 24 24' id='user'>
    <path d="M21 21v-2c0-1.38-.561-2.632-1.464-3.536S17.38 14 16 14H8c-1.38 0-2.632.561-3.536 1.464S3 17.62 3 19v2a1 1 0 0 0 2 0v-2c0-.829.335-1.577.879-2.121S7.171 16 8 16h8c.829 0 1.577.335 2.121.879S19 18.171 19 19v2a1 1 0 0 0 2 0zM17 7c0-1.38-.561-2.632-1.464-3.536S13.38 2 12 2s-2.632.561-3.536 1.464S7 5.62 7 7s.561 2.632 1.464 3.536S10.62 12 12 12s2.632-.561 3.536-1.464S17 8.38 17 7zm-2 0c0 .829-.335 1.577-.879 2.121S12.829 10 12 10s-1.577-.335-2.121-.879S9 7.829 9 7s.335-1.577.879-2.121S11.171 4 12 4s1.577.335 2.121.879S15 6.171 15 7z"></path>
  </symbol><symbol  viewBox='0 0 28 28' id='vimeo'>
    <path fill="var(--fill-color, #787878)" d="M26.703 8.094c-.109 2.469-1.844 5.859-5.187 10.172C18.047 22.75 15.141 25 12.735 25c-1.484 0-2.734-1.375-3.75-4.109-.688-2.5-1.375-5.016-2.063-7.531-.75-2.734-1.578-4.094-2.453-4.094-.187 0-.844.391-1.984 1.188L1.282 8.923c1.25-1.109 2.484-2.234 3.719-3.313 1.656-1.469 2.922-2.203 3.766-2.281 1.984-.187 3.187 1.156 3.656 4.047.484 3.125.844 5.078 1.031 5.828.578 2.594 1.188 3.891 1.875 3.891.531 0 1.328-.828 2.406-2.516 1.062-1.687 1.625-2.969 1.703-3.844.141-1.453-.422-2.172-1.703-2.172-.609 0-1.234.141-1.891.406 1.25-4.094 3.641-6.078 7.172-5.969 2.609.078 3.844 1.781 3.687 5.094z"></path>
  </symbol></svg>